<svg id="109256" viewBox="0 0 170 170" xmlns="http://www.w3.org/2000/svg" xmlns:xlink="http://www.w3.org/1999/xlink"><defs><marker id="NONE" viewBox="0 0 10 10" refX="5" refY="5" markerWidth="1" markerHeight="1" orient="auto-start-reverse" markerUnits="strokeWidth"></marker><marker id="ROUND" viewBox="0 0 10 10" refX="5" refY="5" markerWidth="1" markerHeight="1" orient="auto-start-reverse" markerUnits="strokeWidth"><circle r="5" cx="5" cy="5" stroke="context-stroke" fill="context-fill"></circle></marker><marker id="SQUARE" viewBox="0 0 10 10" refX="0" refY="5" markerWidth="1" markerHeight="1" orient="auto-start-reverse" markerUnits="strokeWidth"><rect x="0" y="0" width="5" height="10" stroke="context-stroke" fill="context-fill"></rect></marker><marker id="ARROW_LINES" viewBox="0 0 10 10" refX="4" refY="5" markerWidth="10" markerHeight="10" orient="auto-start-reverse" markerUnits="strokeWidth"><path d="M3.3095 4.5L0.3255 1.457C0.1315 1.26 0.1355 0.942998 0.3315 0.749998C0.5295 0.556998 0.8455 0.559998 1.0385 0.756998L4.8575 4.65C5.0475 4.844 5.0475 5.156 4.8575 5.35L1.0385 9.243C0.8455 9.44 0.5285 9.443 0.3315 9.25C0.1345 9.057 0.1315 8.74 0.3255 8.543L3.3095 5.5V4.5Z"></path></marker><marker id="ARROW_EQUILATERAL" viewBox="0 0 10 10" refX="6.5" refY="5" markerWidth="6" markerHeight="6" orient="auto-start-reverse" markerUnits="strokeWidth"><path d="M8 5L0.5 9.33013L0.5 0.669873L8 5Z"></path></marker><marker id="TRIANGLE_FILLED" viewBox="0 0 10 10" refX="5" refY="5" markerWidth="6" markerHeight="6" orient="auto-start-reverse" markerUnits="strokeWidth"><path d="M-5.96244e-08 5L7.5 9.33013L7.5 0.669873L-5.96244e-08 5Z"></path></marker><marker id="CIRCLE_FILLED" viewBox="0 0 10 10" refX="5" refY="5" markerWidth="6" markerHeight="6" orient="auto-start-reverse" markerUnits="strokeWidth"><circle r="3.5" cx="5" cy="5"></circle></marker><marker id="DIAMOND_FILLED" viewBox="0 0 10 10" refX="5" refY="5" markerWidth="6" markerHeight="6" orient="auto-start-reverse" markerUnits="strokeWidth"><rect x="-0.000488281" y="5" width="7.07138" height="7.07138" transform="rotate(-45 -0.000488281 5)"></rect></marker></defs><g transform="matrix(1,0,0,1,0,0)"><g id="109256" opacity="1" style="mix-blend-mode:normal"><g><defs><clipPath id="109256_clipPath" x="-50%" y="-50%" width="200%" height="200%"><path d="M0,0h170v0v170v0h-170v0v-170z" fill="white" clip-rule="nonzero"></path></clipPath></defs><g clip-path="url(#109256_clipPath)"><path id="109256_fill_path" d="M0,0h170v0v170v0h-170v0v-170z" fill-rule="nonzero" fill="rgb(251, 252, 252)" fill-opacity="0" style="mix-blend-mode:NORMAL"></path><g transform="matrix(1,0,0,1,10,13)"><g id="109431" opacity="1" style="mix-blend-mode:normal"><g><g><g transform="matrix(1,0,0,1,-8,104)"><g id="1121961" opacity="0" style="mix-blend-mode:normal"><g><g><g transform="matrix(1,0,0,1,0,0)"><g id="109269" opacity="1" style="mix-blend-mode:normal"><g><g><path id="109269_fill_path" d="M2.4545,4.94h1.148v1.582h6.118v-1.582h1.162v5.054h-8.428zM3.6025,7.446v1.61h6.118v-1.61zM0.9285,11.338h11.438v0.952h-11.438zM6.0805,9.448h1.148v2.31h-1.148zM2.4125,15.86h8.694v0.952h-8.694zM2.4125,13.312h1.162v2.87h-1.162zM22.9494,4.45h1.176v9.24h-1.176zM15.9914,15.86h8.512v0.952h-8.512zM15.9914,12.738h1.148v3.444h-1.148zM17.3354,5.318c1.89,0 3.29,1.288 3.29,3.122c0,1.82 -1.4,3.122 -3.29,3.122c-1.89,0 -3.304,-1.302 -3.304,-3.122c0,-1.834 1.414,-3.122 3.304,-3.122zM17.3354,6.326c-1.232,0 -2.17,0.868 -2.17,2.114c0,1.232 0.938,2.1 2.17,2.1c1.232,0 2.17,-0.868 2.17,-2.1c0,-1.246 -0.938,-2.114 -2.17,-2.114zM32.9252,10.372h1.162v1.624h-1.162zM38.2592,4.45h1.162v8.484h-1.162zM38.9312,8.272h2.338v0.966h-2.338zM29.6912,12.57l-0.154,-0.952c2.268,0 5.348,0 7.966,-0.378l0.098,0.826c-2.702,0.476 -5.698,0.49 -7.91,0.504zM31.1052,13.564h8.316v3.528h-1.162v-2.604h-7.154zM29.8592,5.584h7.266v0.868h-7.266zM33.4992,6.942c1.778,0 2.94,0.714 2.94,1.876c0,1.162 -1.162,1.876 -2.94,1.876c-1.792,0 -2.954,-0.714 -2.954,-1.876c0,-1.162 1.162,-1.876 2.954,-1.876zM33.4992,7.74c-1.134,0 -1.862,0.406 -1.862,1.078c0,0.644 0.728,1.064 1.862,1.064c1.12,0 1.848,-0.42 1.848,-1.064c0,-0.672 -0.728,-1.078 -1.848,-1.078zM32.9252,4.338h1.162v1.666h-1.162zM51.6281,4.45h1.176v9.24h-1.176zM44.6701,15.86h8.512v0.952h-8.512zM44.6701,12.738h1.148v3.444h-1.148zM46.0141,5.318c1.89,0 3.29,1.288 3.29,3.122c0,1.82 -1.4,3.122 -3.29,3.122c-1.89,0 -3.304,-1.302 -3.304,-3.122c0,-1.834 1.414,-3.122 3.304,-3.122zM46.0141,6.326c-1.232,0 -2.17,0.868 -2.17,2.114c0,1.232 0.938,2.1 2.17,2.1c1.232,0 2.17,-0.868 2.17,-2.1c0,-1.246 -0.938,-2.114 -2.17,-2.114zM60.951,4.646c2.786,0 4.452,0.784 4.452,2.198c0,1.414 -1.666,2.198 -4.452,2.198c-2.8,0 -4.452,-0.784 -4.452,-2.198c0,-1.414 1.652,-2.198 4.452,-2.198zM60.951,5.528c-2.072,0 -3.262,0.476 -3.262,1.316c0,0.84 1.19,1.316 3.262,1.316c2.058,0 3.248,-0.476 3.248,-1.316c0,-0.84 -1.19,-1.316 -3.248,-1.316zM55.225,9.882h11.438v0.938h-11.438zM56.611,11.898h8.596v2.856h-7.42v1.54h-1.148v-2.38h7.42v-1.12h-7.448zM56.639,16.042h8.946v0.91h-8.946zM75.2388,5.024c1.89,0 3.234,1.05 3.234,2.604c0,1.54 -1.344,2.618 -3.234,2.618c-1.876,0 -3.22,-1.078 -3.22,-2.618c0,-1.554 1.344,-2.604 3.22,-2.604zM75.2388,5.99c-1.232,0 -2.114,0.672 -2.114,1.638c0,0.98 0.882,1.638 2.114,1.638c1.232,0 2.114,-0.658 2.114,-1.638c0,-0.966 -0.882,-1.638 -2.114,-1.638zM74.7208,11.646h1.162v5.054h-1.162zM80.3208,4.436h1.148v12.67h-1.148zM71.2347,12.276l-0.154,-0.98c2.3521,0 5.5581,-0.028 8.3441,-0.448l0.084,0.868c-2.856,0.518 -5.964,0.56 -8.2741,0.56zM92.5697,4.45h1.162v9.492h-1.162zM93.3677,8.594h2.24v0.98h-2.24zM83.9457,5.976h7.476v0.938h-7.476zM87.6837,7.614c1.792,0 3.024,0.938 3.024,2.366c0,1.414 -1.232,2.352 -3.024,2.352c-1.806,0 -3.038,-0.938 -3.038,-2.352c0,-1.428 1.232,-2.366 3.038,-2.366zM87.6837,8.524c-1.148,0 -1.932,0.574 -1.932,1.456c0,0.868 0.784,1.442 1.932,1.442c1.134,0 1.918,-0.574 1.918,-1.442c0,-0.882 -0.784,-1.456 -1.918,-1.456zM87.0957,4.436h1.162v2.03h-1.162zM85.8497,15.86h8.456v0.952h-8.456zM85.8497,13.186h1.162v3.08h-1.162zM145.702,4.422h1.162v12.684h-1.162zM140.186,5.402c1.876,0 3.22,1.722 3.22,4.41c0,2.702 -1.344,4.424 -3.22,4.424c-1.862,0 -3.206,-1.722 -3.206,-4.424c0,-2.688 1.344,-4.41 3.206,-4.41zM140.186,6.452c-1.232,0 -2.1,1.316 -2.1,3.36c0,2.058 0.868,3.402 2.1,3.402c1.246,0 2.1,-1.344 2.1,-3.402c0,-2.044 -0.854,-3.36 -2.1,-3.36zM53.8547,24.436h1.176v6.552h-1.176zM46.7707,31.604h8.26v3.052h-7.084v1.904h-1.134v-2.772h7.056v-1.26h-7.098zM46.8127,36.028h8.68v0.924h-8.68zM45.2027,25.29h6.79v0.924h-6.79zM44.9787,30.568l-0.126,-0.966c2.254,0 5.278,-0.056 7.742,-0.364l0.07,0.854c-2.52,0.378 -5.46,0.462 -7.686,0.476zM46.4487,25.71h1.12v4.312h-1.12zM49.6127,25.71h1.134v4.312h-1.134zM60.2516,30.946h1.148v3.794h-1.148zM64.9276,30.946h1.162v3.794h-1.162zM57.4516,34.516h11.466v0.966h-11.466zM63.1636,25.234c2.674,0 4.592,1.274 4.592,3.262c0,1.974 -1.918,3.248 -4.592,3.248c-2.688,0 -4.606,-1.274 -4.606,-3.248c0,-1.988 1.918,-3.262 4.606,-3.262zM63.1636,26.158c-2.03,0 -3.486,0.924 -3.486,2.338c0,1.4 1.456,2.324 3.486,2.324c2.03,0 3.472,-0.924 3.472,-2.324c0,-1.414 -1.442,-2.338 -3.472,-2.338zM78.9125,24.436h1.162v7.35h-1.162zM79.5705,27.656h2.38v0.98h-2.38zM72.1225,32.346h1.134v1.344h5.67v-1.344h1.148v4.578h-7.952zM73.2565,34.586v1.4h5.67v-1.4zM70.2885,25.724h7.476v0.952h-7.476zM74.0266,27.25c1.806,0 3.0239,0.882 3.0239,2.226c0,1.344 -1.2179,2.226 -3.0239,2.226c-1.82,0 -3.0381,-0.882 -3.0381,-2.226c0,-1.344 1.2181,-2.226 3.0381,-2.226zM74.0266,28.132c-1.1621,0 -1.9321,0.532 -1.9321,1.344c0,0.812 0.77,1.344 1.9321,1.344c1.1339,0 1.9179,-0.532 1.9179,-1.344c0,-0.812 -0.784,-1.344 -1.9179,-1.344zM73.4385,24.31h1.162v1.932h-1.162zM92.2675,24.436h1.162v12.656h-1.162zM83.8675,25.668h1.148v7.84h-1.148zM83.8675,32.822h1.036c1.918,0 3.92,-0.14 6.062,-0.588l0.14,0.994c-2.198,0.448 -4.2,0.602 -6.202,0.602h-1.036zM104.432,24.422h1.176v12.684h-1.176zM105.328,29.42h2.352v0.98h-2.352zM96.4104,32.976h0.994c2.338,0 3.9756,-0.084 5.8656,-0.434l0.126,0.98c-1.946,0.364 -3.6116,0.434 -5.9916,0.434h-0.994zM96.4104,25.654h5.8796v0.952h-4.7316v6.804h-1.148z" fill-rule="nonzero" fill="rgb(119, 119, 119)" fill-opacity="1" style="mix-blend-mode:NORMAL"></path></g></g></g></g><g transform="matrix(1,0,0,1,98,0)"><g id="1121960" opacity="1" style="mix-blend-mode:normal"><g><g><path id="1121960_fill_path" d="M3.73764,13.396h1.47v3.794h-1.47zM8.14764,13.396h1.47v3.794h-1.47zM1.46964,5.724h10.34596v1.162h-10.34596zM0.89564,12.556h11.59196v1.176h-11.59196zM6.66364,7.516c2.674,0 4.25596,0.756 4.25596,2.128c0,1.386 -1.58196,2.156 -4.25596,2.156c-2.674,0 -4.256,-0.77 -4.256,-2.156c0,-1.372 1.582,-2.128 4.256,-2.128zM6.66364,8.608c-1.778,0 -2.73,0.35 -2.73,1.036c0,0.7 0.952,1.05 2.73,1.05c1.792,0 2.744,-0.35 2.744,-1.05c0,-0.686 -0.952,-1.036 -2.744,-1.036zM5.93564,4.324h1.456v2.226h-1.456zM23.2105,4.366h1.4v12.796h-1.4zM21.2505,9.406h2.31v1.19h-2.31zM20.3265,4.618h1.358v11.914h-1.358zM14.1105,12.906h0.868c1.736,0 3.024,-0.056 4.522,-0.35l0.126,1.204c-1.54,0.308 -2.856,0.364 -4.648,0.364h-0.868zM14.1105,5.892h4.746v1.19h-3.29v6.398h-1.456zM27.5495,4.898h9.45v1.176h-9.45zM27.6195,8.65h9.31v1.162h-9.31zM29.3415,5.402h1.47v3.808h-1.47zM33.7375,5.402h1.47v3.808h-1.47zM26.4995,11.184h11.564v1.176h-11.564zM31.5535,9.434h1.456v2.464h-1.456zM27.9555,15.72h8.82v1.19h-8.82zM27.9555,13.34h1.47v2.786h-1.47z" fill-rule="nonzero" fill="rgb(0, 149, 145)" fill-opacity="1" style="mix-blend-mode:NORMAL"></path></g></g></g></g></g></g></g></g><g transform="matrix(1,0,0,1,36,0)"><g id="109427" opacity="1" style="mix-blend-mode:normal"><g><g><g transform="matrix(1,0,0,1,0,0)"><g id="109426" opacity="1" style="mix-blend-mode:normal"><g><g><path id="109426_fill_path" d="M12,0h56c6.62742,0 12,5.37258 12,12v56c0,6.62742 -5.37258,12 -12,12h-56c-6.62742,0 -12,-5.37258 -12,-12v-56c0,-6.62742 5.37258,-12 12,-12z" fill-rule="nonzero" fill="rgb(38, 43, 69)" fill-opacity="1" style="mix-blend-mode:NORMAL"></path></g></g></g></g><g transform="matrix(1,0,0,1,12,28)"><g id="109408" opacity="0" style="mix-blend-mode:normal"><g><g><g transform="matrix(1,0,0,1,0,0)"><g id="109409" opacity="1" style="mix-blend-mode:normal"><g><g><g transform="matrix(1,0,0,1,0,0)"><g id="109410" opacity="1" style="mix-blend-mode:normal"><g><g></g></g></g></g><g transform="matrix(1,0,0,1,14,8.1667)"><g id="109411" opacity="1" style="mix-blend-mode:normal"><g><g><g transform="matrix(1,0,0,1,0,0)"><g id="109412" opacity="1" style="mix-blend-mode:normal"><g><g><path id="109412_fill_path" d="M5,0h14.5c2.76142,0 5,2.23858 5,5v29.6667c0,2.76142 -2.23858,5 -5,5h-14.5c-2.76142,0 -5,-2.23858 -5,-5v-29.6667c0,-2.76142 2.23858,-5 5,-5z" fill-rule="nonzero" fill="rgb(231, 235, 241)" fill-opacity="1" style="mix-blend-mode:NORMAL"></path></g></g></g></g><g transform="matrix(1,0,0,1,10.5,2.3333)"><g id="109420" opacity="1" style="mix-blend-mode:normal"><g><g><path id="109420_fill_path" d="M3.42012,0.58951c0,0.32611 -0.27309,0.58951 -0.6112,0.58951h-2.19772c-0.33811,0 -0.6112,-0.2634 -0.6112,-0.58951c0,-0.32611 0.27309,-0.58951 0.6112,-0.58951h2.19772c0.33811,0 0.6112,0.2634 0.6112,0.58951z" fill-rule="nonzero" fill="rgb(183, 183, 183)" fill-opacity="1" style="mix-blend-mode:MULTIPLY"></path></g></g></g></g><g transform="matrix(1,0,0,1,16.3333,12.8333)"><g id="109421" opacity="1" style="mix-blend-mode:normal"><g><g><g transform="matrix(1,0,0,1,0,0)"><g id="109422" opacity="1" style="mix-blend-mode:normal"><g><g><path id="109422_fill_path" d="M16.3334,8.1667c0,4.5104 -3.6563,8.1667 -8.1667,8.1667c-4.5104,0 -8.1667,-3.6563 -8.1667,-8.1667c0,-4.5104 3.6563,-8.1667 8.1667,-8.1667c4.5104,0 8.1667,3.6563 8.1667,8.1667z" fill-rule="nonzero" fill="rgb(0, 149, 145)" fill-opacity="1" style="mix-blend-mode:NORMAL"></path></g></g></g></g><g transform="matrix(1,0,0,1,2.3334,2.3334)"><g id="109423" opacity="1" style="mix-blend-mode:normal"><g><g><defs><mask id="109424_mask" style="mask-type:alpha" x="-50%" y="-50%" width="200%" height="200%"><g transform="matrix(1,0,0,1,0,0)"><g id="109424" opacity="1" style="mix-blend-mode:normal"><g><g><path id="109424_fill_path" d="M0,0h11.6667v0v11.6667v0h-11.6667v0v-11.6667z" fill-rule="nonzero" fill="rgb(217, 217, 217)" fill-opacity="1" style="mix-blend-mode:NORMAL"></path></g></g></g></g></mask></defs><g mask="url(#109424_mask)"><g transform="matrix(1,0,0,1,1.9451,1.9443)"><g id="109425" opacity="1" style="mix-blend-mode:normal"><g><g><path id="109425_fill_path" d="M3.88889,3.88889c-0.53472,0 -0.99248,-0.19039 -1.37326,-0.57118c-0.38079,-0.38079 -0.57118,-0.83854 -0.57118,-1.37326c0,-0.53472 0.19039,-0.99248 0.57118,-1.37326c0.38079,-0.38079 0.83854,-0.57118 1.37326,-0.57118c0.53472,0 0.99248,0.19039 1.37326,0.57118c0.38079,0.38079 0.57118,0.83854 0.57118,1.37326c0,0.53472 -0.19039,0.99248 -0.57118,1.37326c-0.38079,0.38079 -0.83854,0.57118 -1.37326,0.57118zM0,7.77778v-1.36111c0,-0.27546 0.07089,-0.52865 0.21267,-0.75955c0.14178,-0.2309 0.33015,-0.40712 0.5651,-0.52865c0.50231,-0.25116 1.01273,-0.43953 1.53125,-0.5651c0.51852,-0.12558 1.04514,-0.18837 1.57986,-0.18837c0.53472,0 1.06134,0.06279 1.57986,0.18837c0.51852,0.12558 1.02894,0.31395 1.53125,0.5651c0.23495,0.12153 0.42332,0.29774 0.5651,0.52865c0.14178,0.2309 0.21267,0.48409 0.21267,0.75955v1.36111z" fill-rule="nonzero" fill="rgb(255, 255, 255)" fill-opacity="1" style="mix-blend-mode:NORMAL"></path></g></g></g></g></g></g></g></g></g></g></g></g></g></g></g></g></g></g></g></g></g></g></g></g></g></g></g></g></g></g></g></g></g><g transform="matrix(1,0,0,1,9,13)"><g id="109430" opacity="1" style="mix-blend-mode:normal"><g><g><g transform="matrix(1,0,0,1,-8,104)"><g id="1121494" opacity="0" style="mix-blend-mode:normal"><g><g><g transform="matrix(1,0,0,1,0,0)"><g id="1121490" opacity="1" style="mix-blend-mode:normal"><g><g><path id="1121490_fill_path" d="M2.42407,4.94h1.148v1.582h6.118v-1.582h1.16203v5.054h-8.42803zM3.57207,7.446v1.61h6.118v-1.61zM0.89807,11.338h11.43803v0.952h-11.43803zM6.05007,9.448h1.148v2.31h-1.148zM2.38207,15.86h8.69403v0.952h-8.69403zM2.38207,13.312h1.162v2.87h-1.162zM22.919,4.45h1.176v9.24h-1.176zM15.961,15.86h8.512v0.952h-8.512zM15.961,12.738h1.148v3.444h-1.148zM17.305,5.318c1.89,0 3.29,1.288 3.29,3.122c0,1.82 -1.4,3.122 -3.29,3.122c-1.89,0 -3.304,-1.302 -3.304,-3.122c0,-1.834 1.414,-3.122 3.304,-3.122zM17.305,6.326c-1.232,0 -2.17,0.868 -2.17,2.114c0,1.232 0.938,2.1 2.17,2.1c1.232,0 2.17,-0.868 2.17,-2.1c0,-1.246 -0.938,-2.114 -2.17,-2.114zM32.8947,10.372h1.162v1.624h-1.162zM38.2287,4.45h1.162v8.484h-1.162zM38.9007,8.272h2.338v0.966h-2.338zM29.6607,12.57l-0.154,-0.952c2.268,0 5.348,0 7.966,-0.378l0.098,0.826c-2.702,0.476 -5.698,0.49 -7.91,0.504zM31.0747,13.564h8.316v3.528h-1.162v-2.604h-7.154zM29.8287,5.584h7.266v0.868h-7.266zM33.4687,6.942c1.778,0 2.94,0.714 2.94,1.876c0,1.162 -1.162,1.876 -2.94,1.876c-1.792,0 -2.954,-0.714 -2.954,-1.876c0,-1.162 1.162,-1.876 2.954,-1.876zM33.4687,7.74c-1.134,0 -1.862,0.406 -1.862,1.078c0,0.644 0.728,1.064 1.862,1.064c1.12,0 1.848,-0.42 1.848,-1.064c0,-0.672 -0.728,-1.078 -1.848,-1.078zM32.8947,4.338h1.162v1.666h-1.162zM51.5976,4.45h1.176v9.24h-1.176zM44.6396,15.86h8.512v0.952h-8.512zM44.6396,12.738h1.148v3.444h-1.148zM45.9836,5.318c1.89,0 3.29,1.288 3.29,3.122c0,1.82 -1.4,3.122 -3.29,3.122c-1.89,0 -3.304,-1.302 -3.304,-3.122c0,-1.834 1.414,-3.122 3.304,-3.122zM45.9836,6.326c-1.232,0 -2.17,0.868 -2.17,2.114c0,1.232 0.938,2.1 2.17,2.1c1.232,0 2.17,-0.868 2.17,-2.1c0,-1.246 -0.938,-2.114 -2.17,-2.114zM60.9206,4.646c2.786,0 4.452,0.784 4.452,2.198c0,1.414 -1.666,2.198 -4.452,2.198c-2.8,0 -4.452,-0.784 -4.452,-2.198c0,-1.414 1.652,-2.198 4.452,-2.198zM60.9206,5.528c-2.072,0 -3.262,0.476 -3.262,1.316c0,0.84 1.19,1.316 3.262,1.316c2.058,0 3.248,-0.476 3.248,-1.316c0,-0.84 -1.19,-1.316 -3.248,-1.316zM55.1946,9.882h11.438v0.938h-11.438zM56.5806,11.898h8.596v2.856h-7.42v1.54h-1.148v-2.38h7.4199v-1.12h-7.4479zM56.6086,16.042h8.946v0.91h-8.946zM75.2083,5.024c1.89,0 3.234,1.05 3.234,2.604c0,1.54 -1.344,2.618 -3.234,2.618c-1.876,0 -3.22,-1.078 -3.22,-2.618c0,-1.554 1.344,-2.604 3.22,-2.604zM75.2083,5.99c-1.232,0 -2.114,0.672 -2.114,1.638c0,0.98 0.882,1.638 2.114,1.638c1.232,0 2.114,-0.658 2.114,-1.638c0,-0.966 -0.882,-1.638 -2.114,-1.638zM74.6903,11.646h1.162v5.054h-1.162zM80.2903,4.436h1.148v12.67h-1.148zM71.2043,12.276l-0.154,-0.98c2.352,0 5.558,-0.028 8.344,-0.448l0.084,0.868c-2.856,0.518 -5.964,0.56 -8.274,0.56zM92.5392,4.45h1.162v9.492h-1.162zM93.3372,8.594h2.24v0.98h-2.24zM83.9152,5.976h7.476v0.938h-7.476zM87.6532,7.614c1.792,0 3.024,0.938 3.024,2.366c0,1.414 -1.232,2.352 -3.024,2.352c-1.806,0 -3.038,-0.938 -3.038,-2.352c0,-1.428 1.232,-2.366 3.038,-2.366zM87.6532,8.524c-1.148,0 -1.932,0.574 -1.932,1.456c0,0.868 0.784,1.442 1.932,1.442c1.134,0 1.918,-0.574 1.918,-1.442c0,-0.882 -0.784,-1.456 -1.918,-1.456zM87.0652,4.436h1.162v2.03h-1.162zM85.8192,15.86h8.456v0.952h-8.456zM85.8192,13.186h1.162v3.08h-1.162zM148.732,4.422h1.162v12.684h-1.162zM143.216,5.402c1.876,0 3.22,1.722 3.22,4.41c0,2.702 -1.344,4.424 -3.22,4.424c-1.862,0 -3.206,-1.722 -3.206,-4.424c0,-2.688 1.344,-4.41 3.206,-4.41zM143.216,6.452c-1.232,0 -2.1,1.316 -2.1,3.36c0,2.058 0.868,3.402 2.1,3.402c1.246,0 2.1,-1.344 2.1,-3.402c0,-2.044 -0.854,-3.36 -2.1,-3.36zM55.3547,24.436h1.176v6.552h-1.176zM48.2707,31.604h8.26v3.052h-7.084v1.904h-1.134v-2.772h7.056v-1.26h-7.098zM48.3127,36.028h8.68v0.924h-8.68zM46.7027,25.29h6.79v0.924h-6.79zM46.4787,30.568l-0.126,-0.966c2.254,0 5.278,-0.056 7.742,-0.364l0.07,0.854c-2.52,0.378 -5.46,0.462 -7.686,0.476zM47.9487,25.71h1.12v4.312h-1.12zM51.1127,25.71h1.134v4.312h-1.134zM61.7516,30.946h1.148v3.794h-1.148zM66.4276,30.946h1.162v3.794h-1.162zM58.9516,34.516h11.466v0.966h-11.466zM64.6636,25.234c2.674,0 4.592,1.274 4.592,3.262c0,1.974 -1.918,3.248 -4.592,3.248c-2.688,0 -4.606,-1.274 -4.606,-3.248c0,-1.988 1.918,-3.262 4.606,-3.262zM64.6636,26.158c-2.03,0 -3.486,0.924 -3.486,2.338c0,1.4 1.456,2.324 3.486,2.324c2.03,0 3.472,-0.924 3.472,-2.324c0,-1.414 -1.442,-2.338 -3.472,-2.338zM80.4125,24.436h1.162v7.35h-1.162zM81.0705,27.656h2.38v0.98h-2.38zM73.6225,32.346h1.134v1.344h5.67v-1.344h1.148v4.578h-7.952zM74.7565,34.586v1.4h5.67v-1.4zM71.7885,25.724h7.476v0.952h-7.476zM75.5266,27.25c1.806,0 3.0239,0.882 3.0239,2.226c0,1.344 -1.2179,2.226 -3.0239,2.226c-1.82,0 -3.0381,-0.882 -3.0381,-2.226c0,-1.344 1.2181,-2.226 3.0381,-2.226zM75.5266,28.132c-1.1621,0 -1.9321,0.532 -1.9321,1.344c0,0.812 0.77,1.344 1.9321,1.344c1.1339,0 1.9179,-0.532 1.9179,-1.344c0,-0.812 -0.784,-1.344 -1.9179,-1.344zM74.9385,24.31h1.162v1.932h-1.162zM93.7675,24.436h1.162v12.656h-1.162zM85.3675,25.668h1.148v7.84h-1.148zM85.3675,32.822h1.036c1.918,0 3.92,-0.14 6.062,-0.588l0.14,0.994c-2.198,0.448 -4.2,0.602 -6.202,0.602h-1.036zM105.932,24.422h1.176v12.684h-1.176zM106.828,29.42h2.352v0.98h-2.352zM97.9104,32.976h0.994c2.3376,0 3.9756,-0.084 5.8656,-0.434l0.126,0.98c-1.946,0.364 -3.612,0.434 -5.9916,0.434h-0.994zM97.9104,25.654h5.8796v0.952h-4.7316v6.804h-1.148z" fill-rule="nonzero" fill="rgb(119, 119, 119)" fill-opacity="1" style="mix-blend-mode:NORMAL"></path></g></g></g></g><g transform="matrix(1,0,0,1,99,0)"><g id="1121492" opacity="1" style="mix-blend-mode:normal"><g><g><path id="1121492_fill_path" d="M9.96764,4.38h1.46996v9.352h-1.46996zM3.07964,15.72h8.72196v1.19h-8.72196zM3.07964,12.85h1.47v3.458h-1.47zM4.07364,5.08h1.218v1.274c0,2.492 -1.302,4.732 -3.598,5.6l-0.756,-1.176c2.03,-0.742 3.136,-2.576 3.136,-4.424zM4.35364,5.08h1.204v1.274c0,1.806 1.106,3.514 3.094,4.2l-0.756,1.162c-2.254,-0.812 -3.542,-2.912 -3.542,-5.362zM13.6905,11.03h11.592v1.176h-11.592zM18.8705,11.646h1.456v2.828h-1.456zM15.1045,15.72h8.89v1.19h-8.89zM15.1045,13.41h1.456v2.786h-1.456zM15.2025,4.772h1.442v1.484h5.67v-1.484h1.456v5.18h-8.568zM16.6445,7.376v1.414h5.67v-1.414zM26.4995,10.372h11.564v1.176h-11.564zM32.2675,12.472c2.744,0 4.41,0.854 4.41,2.338c0,1.484 -1.666,2.338 -4.41,2.338c-2.744,0 -4.41,-0.854 -4.41,-2.338c0,-1.484 1.666,-2.338 4.41,-2.338zM32.2675,13.62c-1.876,0 -2.926,0.406 -2.926,1.19c0,0.784 1.05,1.19 2.926,1.19c1.876,0 2.926,-0.406 2.926,-1.19c0,-0.784 -1.05,-1.19 -2.926,-1.19zM31.3015,5.598h1.302v0.35c0,1.988 -2.072,3.472 -5.012,3.78l-0.504,-1.148c2.506,-0.252 4.214,-1.386 4.214,-2.632zM31.9735,5.598h1.288v0.35c0,1.246 1.708,2.38 4.228,2.632l-0.518,1.148c-2.926,-0.308 -4.998,-1.792 -4.998,-3.78zM27.5635,4.996h9.464v1.176h-9.464z" fill-rule="nonzero" fill="rgb(0, 149, 145)" fill-opacity="1" style="mix-blend-mode:NORMAL"></path></g></g></g></g></g></g></g></g><g transform="matrix(1,0,0,1,37,0)"><g id="109428" opacity="1" style="mix-blend-mode:normal"><g><g><g transform="matrix(1,0,0,1,0,0)"><g id="109389" opacity="1" style="mix-blend-mode:normal"><g><g><path id="109389_fill_path" d="M12,0h56c6.62742,0 12,5.37258 12,12v56c0,6.62742 -5.37258,12 -12,12h-56c-6.62742,0 -12,-5.37258 -12,-12v-56c0,-6.62742 5.37258,-12 12,-12z" fill-rule="nonzero" fill="rgb(38, 43, 69)" fill-opacity="1" style="mix-blend-mode:NORMAL"></path></g></g></g></g><g transform="matrix(1,0,0,1,12,28)"><g id="109353" opacity="0" style="mix-blend-mode:normal"><g><g><g transform="matrix(1,0,0,1,0,0)"><g id="109354" opacity="1" style="mix-blend-mode:normal"><g><g></g></g></g></g><g transform="matrix(1,0,0,1,9.3333,14)"><g id="109355" opacity="1" style="mix-blend-mode:normal"><g><g><g transform="matrix(1,0,0,1,0,0)"><g id="109356" opacity="1" style="mix-blend-mode:normal"><g><defs><clipPath id="109356_clipPath" x="-50%" y="-50%" width="200%" height="200%"><path d="M0,0h37.3333v0v25.6667v0h-37.3333v0v-25.6667z" fill="white" clip-rule="nonzero"></path></clipPath></defs><g clip-path="url(#109356_clipPath)"><g transform="matrix(1,0,0,1,0,0)"><g id="109357" opacity="1" style="mix-blend-mode:normal"><g><g><path id="109357_fill_path" d="M35.57502,0h-33.8167c-0.96945,0 -1.75832,0.77963 -1.75832,1.73772v22.19122c0,0.9581 0.78887,1.73773 1.75832,1.73773h33.8167c0.96945,0 1.75831,-0.77963 1.75831,-1.73773v-22.19122c0,-0.9581 -0.78886,-1.73772 -1.75831,-1.73772z" fill-rule="nonzero" fill="rgb(231, 235, 241)" fill-opacity="1" style="mix-blend-mode:NORMAL"></path></g></g></g></g><g transform="matrix(1,0,0,1,3.5,11.6667)"><g id="109358" opacity="1" style="mix-blend-mode:normal"><g><g><path id="109358_fill_path" d="M9.33333,4.20082v2.79918h-9.33333v-2.79918c0,-2.31967 2.08976,-4.20082 4.66667,-4.20082c1.28846,0 2.45398,0.47131 3.30081,1.22951c0.84228,0.7582 1.36585,1.81148 1.36585,2.97131z" fill-rule="nonzero" fill="rgb(183, 183, 183)" fill-opacity="1" style="mix-blend-mode:NORMAL"></path></g></g></g></g><g transform="matrix(0.9993671104907287,-0.04218385276457144,0.04320322198625457,0.9988096277799582,4.9948,6.1011)"><g id="109359" opacity="1" style="mix-blend-mode:normal"><g><g><path id="109359_fill_path" d="M5.83333,2.91667c0,1.61083 -1.30584,2.91667 -2.91667,2.91667c-1.61083,0 -2.91667,-1.30584 -2.91667,-2.91667c0,-1.61083 1.30584,-2.91667 2.91667,-2.91667c1.61083,0 2.91667,1.30584 2.91667,2.91667z" fill-rule="nonzero" fill="rgb(183, 183, 183)" fill-opacity="1" style="mix-blend-mode:NORMAL"></path></g></g></g></g><g transform="matrix(1,0,0,1,16.3333,4.8139)"><g id="109360" opacity="1" style="mix-blend-mode:normal"><g><g><path id="109360_fill_path" d="M0,0h1.16667v1.16667h-1.16667z" fill-rule="nonzero" fill="rgb(183, 183, 183)" fill-opacity="1" style="mix-blend-mode:NORMAL"></path></g></g></g></g><g transform="matrix(1,0,0,1,18.6667,4.8139)"><g id="109361" opacity="1" style="mix-blend-mode:normal"><g><g><path id="109361_fill_path" d="M0,0h1.16667v1.16667h-1.16667z" fill-rule="nonzero" fill="rgb(183, 183, 183)" fill-opacity="1" style="mix-blend-mode:NORMAL"></path></g></g></g></g><g transform="matrix(1,0,0,1,21,4.8139)"><g id="109362" opacity="1" style="mix-blend-mode:normal"><g><g><path id="109362_fill_path" d="M0,0h1.16667v1.16667h-1.16667z" fill-rule="nonzero" fill="rgb(183, 183, 183)" fill-opacity="1" style="mix-blend-mode:NORMAL"></path></g></g></g></g><g transform="matrix(1,0,0,1,16.3333,8.1667)"><g id="109363" opacity="1" style="mix-blend-mode:normal"><g><g><path id="109363_fill_path" d="M0.58335,0h16.3333c0.32218,0 0.58335,0.26117 0.58335,0.58335v0c0,0.32218 -0.26117,0.58335 -0.58335,0.58335h-16.3333c-0.32218,0 -0.58335,-0.26117 -0.58335,-0.58335v0c0,-0.32218 0.26117,-0.58335 0.58335,-0.58335z" fill-rule="nonzero" fill="rgb(183, 183, 183)" fill-opacity="1" style="mix-blend-mode:NORMAL"></path></g></g></g></g><g transform="matrix(1,0,0,1,16.3333,11.6667)"><g id="109364" opacity="1" style="mix-blend-mode:normal"><g><g><path id="109364_fill_path" d="M0.58335,0h16.3333c0.32218,0 0.58335,0.26117 0.58335,0.58335v0c0,0.32218 -0.26117,0.58335 -0.58335,0.58335h-16.3333c-0.32218,0 -0.58335,-0.26117 -0.58335,-0.58335v0c0,-0.32218 0.26117,-0.58335 0.58335,-0.58335z" fill-rule="nonzero" fill="rgb(183, 183, 183)" fill-opacity="1" style="mix-blend-mode:NORMAL"></path></g></g></g></g><g transform="matrix(1,0,0,1,16.3333,15.1667)"><g id="109365" opacity="1" style="mix-blend-mode:normal"><g><g><path id="109365_fill_path" d="M0.58335,0h5.8333c0.32218,0 0.58335,0.26117 0.58335,0.58335v0c0,0.32218 -0.26117,0.58335 -0.58335,0.58335h-5.8333c-0.32218,0 -0.58335,-0.26117 -0.58335,-0.58335v0c0,-0.32218 0.26117,-0.58335 0.58335,-0.58335z" fill-rule="nonzero" fill="rgb(183, 183, 183)" fill-opacity="1" style="mix-blend-mode:NORMAL"></path></g></g></g></g></g></g></g></g></g></g></g></g><g transform="matrix(1,0,0,1,33.8333,25.6667)"><g id="109366" opacity="1" style="mix-blend-mode:normal"><g><g><path id="109366_fill_path" d="M16.3334,8.1667c0,4.5104 -3.6563,8.1667 -8.1667,8.1667c-4.5104,0 -8.1667,-3.6563 -8.1667,-8.1667c0,-4.5104 3.6563,-8.1667 8.1667,-8.1667c4.5104,0 8.1667,3.6563 8.1667,8.1667z" fill-rule="nonzero" fill="rgb(0, 149, 145)" fill-opacity="1" style="mix-blend-mode:NORMAL"></path></g></g></g></g><g transform="matrix(1,0,0,1,37.3333,29.1667)"><g id="109367" opacity="1" style="mix-blend-mode:normal"><g><g><defs><mask id="109368_mask" style="mask-type:alpha" x="-50%" y="-50%" width="200%" height="200%"><g transform="matrix(1,0,0,1,0,0)"><g id="109368" opacity="1" style="mix-blend-mode:normal"><g><g><path id="109368_fill_path" d="M0,0h9.3333v0v9.3333v0h-9.3333v0v-9.3333z" fill-rule="nonzero" fill="rgb(217, 217, 217)" fill-opacity="1" style="mix-blend-mode:NORMAL"></path></g></g></g></g></mask></defs><g mask="url(#109368_mask)"><g transform="matrix(1,0,0,1,0.7778,1.1666)"><g id="109369" opacity="1" style="mix-blend-mode:normal"><g><g><path id="109369_fill_path" d="M3.88889,5.63889c0.49907,0 0.91875,-0.17014 1.25903,-0.51042c0.34028,-0.34028 0.51042,-0.75671 0.51042,-1.24931c0,-0.49259 -0.17014,-0.90903 -0.51042,-1.24931c-0.34028,-0.34028 -0.75995,-0.51042 -1.25903,-0.51042c-0.49259,0 -0.90741,0.17014 -1.24444,0.51042c-0.33704,0.34028 -0.50556,0.75671 -0.50556,1.24931c0,0.49259 0.16852,0.90903 0.50556,1.24931c0.33704,0.34028 0.75185,0.51042 1.24444,0.51042zM0.81667,7c-0.22685,0 -0.41968,-0.0794 -0.57847,-0.23819c-0.1588,-0.1588 -0.23819,-0.35162 -0.23819,-0.57847v-4.59861c0,-0.22685 0.0794,-0.41968 0.23819,-0.57847c0.1588,-0.1588 0.35162,-0.23819 0.57847,-0.23819h1.18611l0.70972,-0.76806h2.35278l0.71944,0.76806h1.17639c0.22685,0 0.41968,0.0794 0.57847,0.23819c0.1588,0.1588 0.23819,0.35162 0.23819,0.57847v4.59861c0,0.22685 -0.0794,0.41968 -0.23819,0.57847c-0.1588,0.1588 -0.35162,0.23819 -0.57847,0.23819z" fill-rule="nonzero" fill="rgb(255, 255, 255)" fill-opacity="1" style="mix-blend-mode:NORMAL"></path></g></g></g></g></g></g></g></g></g></g></g></g></g></g></g></g></g></g></g></g></g></g></g></g></g><animateTransform href="#1121961" attributeName="transform" type="translate" values="0 0;0 0;8 0;8 0;16 0" dur="5.47s" repeatCount="indefinite" calcMode="spline" keyTimes="0;0.52;0.64;0.89;1" keySplines="0.5 0.35 0.15 1;0.5 0.35 0.15 1;0.5 0.35 0.15 1;0.5 0.35 0.15 1" additive="sum" fill="freeze"></animateTransform><animate href="#1121961" attributeName="opacity" values="0;0;1;1;0" dur="5.47s" repeatCount="indefinite" calcMode="spline" keyTimes="0;0.52;0.64;0.89;1" keySplines="0.5 0.35 0.15 1;0.5 0.35 0.15 1;0.5 0.35 0.15 1;0.5 0.35 0.15 1" additive="replace" fill="freeze"></animate><animateTransform href="#109408" attributeName="transform" type="translate" values="0 0;0 0;0 -16;0 -16;0 0" dur="5.47s" repeatCount="indefinite" calcMode="spline" keyTimes="0;0.49;0.64;0.85;1" keySplines="0.5 0.35 0.15 1;0.5 0.35 0.15 1;0.5 0.35 0.15 1;0.5 0.35 0.15 1" additive="sum" fill="freeze"></animateTransform><animate href="#109408" attributeName="opacity" values="0;0;1;1;0" dur="5.47s" repeatCount="indefinite" calcMode="spline" keyTimes="0;0.49;0.64;0.85;1" keySplines="0.5 0.35 0.15 1;0.5 0.35 0.15 1;0.5 0.35 0.15 1;0.5 0.35 0.15 1" additive="replace" fill="freeze"></animate><animateTransform href="#1121494" attributeName="transform" type="translate" values="0 0;0 0;8 0;8 0;16 0;16 0" dur="5.47s" repeatCount="indefinite" calcMode="spline" keyTimes="0;0.04;0.15;0.38;0.49;1" keySplines="0.5 0.35 0.15 1;0.5 0.35 0.15 1;0.5 0.35 0.15 1;0.5 0.35 0.15 1;0.5 0.35 0.15 1" additive="sum" fill="freeze"></animateTransform><animate href="#1121494" attributeName="opacity" values="0;0;1;1;0;0" dur="5.47s" repeatCount="indefinite" calcMode="spline" keyTimes="0;0.04;0.15;0.38;0.49;1" keySplines="0.5 0.35 0.15 1;0.5 0.35 0.15 1;0.5 0.35 0.15 1;0.5 0.35 0.15 1;0.5 0.35 0.15 1" additive="replace" fill="freeze"></animate><animate href="#109389" attributeName="opacity" values="1;1;0;0" dur="5.47s" repeatCount="indefinite" calcMode="spline" keyTimes="0;0.49;0.49;1" keySplines="0.5 0.35 0.15 1;0.5 0.35 0.15 1;0.5 0.35 0.15 1" additive="replace" fill="freeze"></animate><animateTransform href="#109353" attributeName="transform" type="translate" values="0 0;0 -16;0 -16;0 0;0 0" dur="5.47s" repeatCount="indefinite" calcMode="spline" keyTimes="0;0.15;0.35;0.49;1" keySplines="0.5 0.35 0.15 1;0.5 0.35 0.15 1;0.5 0.35 0.15 1;0.5 0.35 0.15 1" additive="sum" fill="freeze"></animateTransform><animate href="#109353" attributeName="opacity" values="0;1;1;0;0" dur="5.47s" repeatCount="indefinite" calcMode="spline" keyTimes="0;0.15;0.35;0.49;1" keySplines="0.5 0.35 0.15 1;0.5 0.35 0.15 1;0.5 0.35 0.15 1;0.5 0.35 0.15 1" additive="replace" fill="freeze"></animate></svg>