<svg id="12" viewBox="0 0 80 80" xmlns="http://www.w3.org/2000/svg" xmlns:xlink="http://www.w3.org/1999/xlink">
<defs>
<marker id="NONE" viewBox="0 0 10 10" refX="5" refY="5" markerWidth="1" markerHeight="1" orient="auto-start-reverse" markerUnits="strokeWidth">
</marker>
<marker id="ROUND" viewBox="0 0 10 10" refX="5" refY="5" markerWidth="1" markerHeight="1" orient="auto-start-reverse" markerUnits="strokeWidth">
<circle r="5" cx="5" cy="5" stroke="context-stroke" fill="context-fill">
</circle>
</marker>
<marker id="SQUARE" viewBox="0 0 10 10" refX="0" refY="5" markerWidth="1" markerHeight="1" orient="auto-start-reverse" markerUnits="strokeWidth">
<rect x="0" y="0" width="5" height="10" stroke="context-stroke" fill="context-fill">
</rect>
</marker>
<marker id="ARROW_LINES" viewBox="0 0 10 10" refX="4" refY="5" markerWidth="10" markerHeight="10" orient="auto-start-reverse" markerUnits="strokeWidth">
<path d="M3.3095 4.5L0.3255 1.457C0.1315 1.26 0.1355 0.942998 0.3315 0.749998C0.5295 0.556998 0.8455 0.559998 1.0385 0.756998L4.8575 4.65C5.0475 4.844 5.0475 5.156 4.8575 5.35L1.0385 9.243C0.8455 9.44 0.5285 9.443 0.3315 9.25C0.1345 9.057 0.1315 8.74 0.3255 8.543L3.3095 5.5V4.5Z">
</path>
</marker>
<marker id="ARROW_EQUILATERAL" viewBox="0 0 10 10" refX="6.5" refY="5" markerWidth="6" markerHeight="6" orient="auto-start-reverse" markerUnits="strokeWidth">
<path d="M8 5L0.5 9.33013L0.5 0.669873L8 5Z">
</path>
</marker>
<marker id="TRIANGLE_FILLED" viewBox="0 0 10 10" refX="5" refY="5" markerWidth="6" markerHeight="6" orient="auto-start-reverse" markerUnits="strokeWidth">
<path d="M-5.96244e-08 5L7.5 9.33013L7.5 0.669873L-5.96244e-08 5Z">
</path>
</marker>
<marker id="CIRCLE_FILLED" viewBox="0 0 10 10" refX="5" refY="5" markerWidth="6" markerHeight="6" orient="auto-start-reverse" markerUnits="strokeWidth">
<circle r="3.5" cx="5" cy="5">
</circle>
</marker>
<marker id="DIAMOND_FILLED" viewBox="0 0 10 10" refX="5" refY="5" markerWidth="6" markerHeight="6" orient="auto-start-reverse" markerUnits="strokeWidth">
<rect x="-0.000488281" y="5" width="7.07138" height="7.07138" transform="rotate(-45 -0.000488281 5)">
</rect>
</marker>
</defs>
<g transform="matrix(1,0,0,1,0,0)">
<g id="12" opacity="1" style="mix-blend-mode:normal">
<g>
<defs>
<clipPath id="12_clipPath" x="-50%" y="-50%" width="200%" height="200%">
<path d="M0,0h80v0v80v0h-80v0v-80z" fill="white" clip-rule="nonzero">
</path>
</clipPath>
</defs>
<g clip-path="url(#12_clipPath)">
<path id="12_fill_path" d="M0,0h80v0v80v0h-80v0v-80z" fill-rule="nonzero" fill="rgb(255, 255, 255)" fill-opacity="0" style="mix-blend-mode:NORMAL">
</path>
<g transform="matrix(1,0,0,1,0,0)">
<g id="13" opacity="1" style="mix-blend-mode:normal">
<g>
<g>
<path id="13_fill_path" d="M80,40c0,22.092 -17.908,40 -40,40c-22.092,0 -40,-17.908 -40,-40c0,-22.092 17.908,-40 40,-40c22.092,0 40,17.908 40,40z" fill-rule="nonzero" fill="rgb(242, 245, 247)" fill-opacity="1" style="mix-blend-mode:NORMAL">
</path>
</g>
</g>
</g>
</g>
<g transform="matrix(1,0,0,1,15,29)">
<g id="120" opacity="0" style="mix-blend-mode:normal">
<g>
<g>
<defs>
<filter id="122_dropShadow_0" x="-100%" y="-100%" width="300%" height="300%" filterUnits="objectBoundingBox">
<feOffset id="122_dropShadow_0_offset" dx="0.5" dy="0.5" in="SourceGraphic" result="122_dropShadow_0_offset">
</feOffset>
<feGaussianBlur id="122_dropShadow_0_radius" stdDeviation="0" in="122_dropShadow_0_offset" result="122_dropShadow_0_blur">
</feGaussianBlur>
<feFlood flood-color="rgb(235 204 120)" flood-opacity="1" in="122_dropShadow_0_blur" result="122_dropShadow_0_color">
</feFlood>
<feComposite operator="in" in="122_dropShadow_0_color" in2="122_dropShadow_0_blur" result="122_dropShadow_0_shadow_result">
</feComposite>
<feMerge>
<feMergeNode in="122_dropShadow_0_shadow_result">
</feMergeNode>
<feMergeNode in="SourceGraphic">
</feMergeNode>
</feMerge>
</filter>
</defs>
<g filter="url(#122_dropShadow_0)">
<g transform="matrix(1,0,0,1,0,0)">
<g id="122" opacity="1" style="mix-blend-mode:normal">
<g>
<g>
<path id="122_fill_path" d="M3,0h27c1.65685,0 3,1.34315 3,3v16c0,1.65685 -1.34315,3 -3,3h-27c-1.65685,0 -3,-1.34315 -3,-3v-16c0,-1.65685 1.34315,-3 3,-3z" fill-rule="nonzero" fill="rgb(255, 231, 165)" fill-opacity="1" style="mix-blend-mode:NORMAL">
</path>
</g>
</g>
</g>
</g>
</g>
<g transform="matrix(1,0,0,1,5,6)">
<g id="123" opacity="1" style="mix-blend-mode:normal">
<g>
<g>
<g transform="matrix(1,0,0,1,12,2)">
<g id="124" opacity="1" style="mix-blend-mode:normal">
<g>
<g>
<g transform="matrix(1,0,0,1,0,0)">
<g id="125" opacity="1" style="mix-blend-mode:normal">
<g>
<g>
<path id="125_fill_path" d="M1,0h8c0.55228,0 1,0.44772 1,1c0,0.55228 -0.44772,1 -1,1h-8c-0.55228,0 -1,-0.44772 -1,-1c0,-0.55228 0.44772,-1 1,-1z" fill-rule="nonzero" fill="rgb(234, 169, 90)" fill-opacity="1" style="mix-blend-mode:NORMAL">
</path>
</g>
</g>
</g>
</g>
<g transform="matrix(1,0,0,1,0,4)">
<g id="126" opacity="1" style="mix-blend-mode:normal">
<g>
<g>
<path id="126_fill_path" d="M1,0h8c0.55228,0 1,0.44772 1,1c0,0.55228 -0.44772,1 -1,1h-8c-0.55228,0 -1,-0.44772 -1,-1c0,-0.55228 0.44772,-1 1,-1z" fill-rule="nonzero" fill="rgb(234, 169, 90)" fill-opacity="1" style="mix-blend-mode:NORMAL">
</path>
</g>
</g>
</g>
</g>
</g>
</g>
</g>
</g>
<g transform="matrix(1,0,0,1,0,0)">
<g id="127" opacity="1" style="mix-blend-mode:normal">
<g>
<g>
<g transform="matrix(1,0,0,1,2.15,0)">
<g id="128" opacity="1" style="mix-blend-mode:normal">
<g>
<g>
<path id="128_fill_path" d="M4.3,2.15c0,1.18741 -0.96259,2.15 -2.15,2.15c-1.18741,0 -2.15,-0.96259 -2.15,-2.15c0,-1.18741 0.96259,-2.15 2.15,-2.15c1.18741,0 2.15,0.96259 2.15,2.15z" fill-rule="nonzero" fill="rgb(234, 169, 90)" fill-opacity="1" style="mix-blend-mode:NORMAL">
</path>
</g>
</g>
</g>
</g>
<g transform="matrix(1,0,0,1,0,4.3)">
<g id="129" opacity="1" style="mix-blend-mode:normal">
<g>
<g>
<path id="129_fill_path" d="M4.3,0c2.375,0 4.3,2.888 4.3,6.45l-0.001,-0.001h-8.599c0,-3.475 1.833,-6.308 4.127,-6.444z" fill-rule="evenodd" fill="rgb(234, 169, 90)" fill-opacity="1" style="mix-blend-mode:NORMAL">
</path>
</g>
</g>
</g>
</g>
</g>
</g>
</g>
</g>
</g>
</g>
</g>
</g>
</g>
</g>
</g>
</g>
<g transform="matrix(1,0,0,1,25,24)">
<g id="130" opacity="0" style="mix-blend-mode:normal">
<g>
<g>
<defs>
<filter id="131_dropShadow_0" x="-100%" y="-100%" width="300%" height="300%" filterUnits="objectBoundingBox">
<feOffset id="131_dropShadow_0_offset" dx="0.5" dy="0.5" in="SourceGraphic" result="131_dropShadow_0_offset">
</feOffset>
<feGaussianBlur id="131_dropShadow_0_radius" stdDeviation="0" in="131_dropShadow_0_offset" result="131_dropShadow_0_blur">
</feGaussianBlur>
<feFlood flood-color="rgb(127 163 235)" flood-opacity="1" in="131_dropShadow_0_blur" result="131_dropShadow_0_color">
</feFlood>
<feComposite operator="in" in="131_dropShadow_0_color" in2="131_dropShadow_0_blur" result="131_dropShadow_0_shadow_result">
</feComposite>
<feMerge>
<feMergeNode in="131_dropShadow_0_shadow_result">
</feMergeNode>
<feMergeNode in="SourceGraphic">
</feMergeNode>
</feMerge>
</filter>
</defs>
<g filter="url(#131_dropShadow_0)">
<g transform="matrix(6.123233995736766e-17,1,-1,6.123233995736766e-17,20,0)">
<g id="131" opacity="1" style="mix-blend-mode:normal">
<g>
<g>
<path id="131_fill_path" d="M3,0h26c1.65685,0 3,1.34315 3,3v14c0,1.65685 -1.34315,3 -3,3h-26c-1.65685,0 -3,-1.34315 -3,-3v-14c0,-1.65685 1.34315,-3 3,-3z" fill-rule="nonzero" fill="rgb(137, 180, 253)" fill-opacity="1" style="mix-blend-mode:NORMAL">
</path>
</g>
</g>
</g>
</g>
</g>
<g transform="matrix(6.123233995736766e-17,1,-1,6.123233995736766e-17,18,2)">
<g id="132" opacity="1" style="mix-blend-mode:normal">
<g>
<g>
<path id="132_fill_path" d="M2,0h24c1.10457,0 2,0.89543 2,2v12c0,1.10457 -0.89543,2 -2,2h-24c-1.10457,0 -2,-0.89543 -2,-2v-12c0,-1.10457 0.89543,-2 2,-2z" fill-rule="nonzero" fill="rgb(195, 215, 255)" fill-opacity="1" style="mix-blend-mode:NORMAL">
</path>
</g>
</g>
</g>
</g>
<g transform="matrix(1,0,0,1,7,4)">
<g id="133" opacity="1" style="mix-blend-mode:normal">
<g>
<g>
<path id="133_fill_path" d="M1,0h4c0.55228,0 1,0.44772 1,1c0,0.55228 -0.44772,1 -1,1h-4c-0.55228,0 -1,-0.44772 -1,-1c0,-0.55228 0.44772,-1 1,-1z" fill-rule="nonzero" fill="rgb(137, 180, 253)" fill-opacity="1" style="mix-blend-mode:NORMAL">
</path>
</g>
</g>
</g>
</g>
</g>
</g>
</g>
</g>
</g>
</g>
</g>
</g>
<animateTransform href="#120" attributeName="transform" type="translate" values="0 0;8 0;8 0;20 0;20 0" dur="4s" repeatCount="indefinite" calcMode="spline" keyTimes="0;0.13;0.38;0.5;1" keySplines="0.42 0 0.58 1;0.5 0.35 0.15 1;0.42 0 0.58 1;0.5 0.35 0.58 1" additive="sum" fill="freeze">
</animateTransform>
<animate href="#120" attributeName="opacity" values="0;1;1;0;0" dur="4s" repeatCount="indefinite" calcMode="spline" keyTimes="0;0.13;0.38;0.5;1" keySplines="0.42 0 0.58 1;0.5 0.35 0.15 1;0.42 0 0.58 1;0.5 0.35 0.58 1" additive="replace" fill="freeze">
</animate>
<animateTransform href="#130" attributeName="transform" type="translate" values="0 0;0 0;5 0;5 0;10 0" dur="4s" repeatCount="indefinite" calcMode="spline" keyTimes="0;0.5;0.63;0.88;1" keySplines="0.42 0 0.15 1;0.42 0 0.58 1;0.5 0.35 0.15 1;0.42 0 0.58 1" additive="sum" fill="freeze">
</animateTransform>
<animate href="#130" attributeName="opacity" values="0;0;1;1;0" dur="4s" repeatCount="indefinite" calcMode="spline" keyTimes="0;0.5;0.63;0.88;1" keySplines="0.42 0 0.15 1;0.42 0 0.58 1;0.5 0.35 0.15 1;0.42 0 0.58 1" additive="replace" fill="freeze">
</animate>
</svg>