<svg width="48" height="48" viewBox="0 0 48 48" xmlns="http://www.w3.org/2000/svg" xmlns:xlink="http://www.w3.org/1999/xlink">
    <defs>
        <path id="legfew2xta" d="M0 0h10.21v10.21H0z"/>
    </defs>
    <g fill="none" fill-rule="evenodd">
        <path d="M0 0h48v48H0z"/>
        <rect stroke="#000" stroke-width="1.5" fill="#FFF" fill-rule="nonzero" x="5.75" y="10.75" width="34.5" height="24.5" rx="5.25"/>
        <circle stroke="#000" stroke-width="1.5" fill="#FFF" fill-rule="nonzero" cx="15" cy="19" r="2.25"/>
        <path d="M20 29v-2a5 5 0 0 0-5-5h0a5 5 0 0 0-5 5v2M24 18h11M24 22h11M24 26h5" stroke="#000" stroke-width="1.5" stroke-linecap="round"/>
        <circle stroke="#000" stroke-width="1.5" fill="#D1F2EB" fill-rule="nonzero" cx="38" cy="32" r="7.25"/>
        <g transform="translate(33 27)">
            <mask id="lwzozj76tb" fill="#fff">
                <use xlink:href="#legfew2xta"/>
            </mask>
            <path d="M5.105 7.445c.532 0 .984-.186 1.356-.559.372-.372.558-.824.558-1.356 0-.531-.186-.983-.558-1.356a1.846 1.846 0 0 0-1.356-.558c-.532 0-.984.186-1.356.558a1.846 1.846 0 0 0-.558 1.356c0 .532.186.984.558 1.356.372.373.824.559 1.356.559zm0-.851c-.298 0-.55-.103-.755-.309a1.027 1.027 0 0 1-.308-.755c0-.297.102-.55.308-.755.206-.205.457-.308.755-.308s.55.103.755.308c.206.206.309.458.309.755 0 .298-.103.55-.309.755a1.027 1.027 0 0 1-.755.309zM1.774 9.138c-.314 0-.58-.11-.8-.328a1.088 1.088 0 0 1-.328-.8V3.05c0-.314.11-.58.329-.8.218-.218.485-.327.799-.327h1.22l.87-.941h2.481l.871.94h1.22c.314 0 .58.11.8.329.218.219.328.485.328.799v4.96c0 .315-.11.581-.329.8a1.087 1.087 0 0 1-.799.328H1.774zm6.662-1.127V3.05H6.713l-.86-.941h-1.49l-.866.941H1.774v4.96h6.662z" fill="#000" fill-rule="nonzero" mask="url(#lwzozj76tb)"/>
        </g>
    </g>
</svg>
