<svg width="24" height="24" viewBox="0 0 24 24" xmlns="http://www.w3.org/2000/svg">
    <path d="M11.999 15.677a.936.936 0 0 1-.347-.063.854.854 0 0 1-.3-.208L8.06 12.112a.722.722 0 0 1-.225-.53.724.724 0 0 1 .221-.537.72.72 0 0 1 .531-.226.735.735 0 0 1 .536.217l2.116 2.116V4.767c0-.212.074-.393.222-.543A.73.73 0 0 1 12 4a.74.74 0 0 1 .543.224c.15.15.224.331.224.543v8.385l2.11-2.116a.724.724 0 0 1 .532-.214c.211 0 .392.073.541.223.146.149.219.326.219.531a.742.742 0 0 1-.223.536l-3.299 3.294a.875.875 0 0 1-.301.208.936.936 0 0 1-.347.063zm-6.133 4.38c-.518 0-.959-.18-1.322-.542A1.797 1.797 0 0 1 4 18.191V16.06a.74.74 0 0 1 .224-.542.74.74 0 0 1 .543-.225c.21 0 .388.075.538.225.15.15.224.33.224.542v2.132c0 .088.035.166.105.234.07.068.148.102.232.102h12.268a.325.325 0 0 0 .232-.102.318.318 0 0 0 .105-.234V16.06a.74.74 0 0 1 .224-.542.74.74 0 0 1 .543-.225c.209 0 .388.075.538.225.15.15.224.33.224.542v2.132c0 .522-.181.963-.544 1.324a1.804 1.804 0 0 1-1.322.542H5.866z" fill="#000" fill-rule="nonzero"/>
</svg>
