<svg id="886" viewBox="0 0 100 100" xmlns="http://www.w3.org/2000/svg" xmlns:xlink="http://www.w3.org/1999/xlink"><defs><marker id="NONE" viewBox="0 0 10 10" refX="5" refY="5" markerWidth="1" markerHeight="1" orient="auto-start-reverse" markerUnits="strokeWidth"></marker><marker id="ROUND" viewBox="0 0 10 10" refX="5" refY="5" markerWidth="1" markerHeight="1" orient="auto-start-reverse" markerUnits="strokeWidth"><circle r="5" cx="5" cy="5" stroke="context-stroke" fill="context-fill"></circle></marker><marker id="SQUARE" viewBox="0 0 10 10" refX="0" refY="5" markerWidth="1" markerHeight="1" orient="auto-start-reverse" markerUnits="strokeWidth"><rect x="0" y="0" width="5" height="10" stroke="context-stroke" fill="context-fill"></rect></marker><marker id="ARROW_LINES" viewBox="0 0 10 10" refX="4" refY="5" markerWidth="10" markerHeight="10" orient="auto-start-reverse" markerUnits="strokeWidth"><path d="M3.3095 4.5L0.3255 1.457C0.1315 1.26 0.1355 0.942998 0.3315 0.749998C0.5295 0.556998 0.8455 0.559998 1.0385 0.756998L4.8575 4.65C5.0475 4.844 5.0475 5.156 4.8575 5.35L1.0385 9.243C0.8455 9.44 0.5285 9.443 0.3315 9.25C0.1345 9.057 0.1315 8.74 0.3255 8.543L3.3095 5.5V4.5Z"></path></marker><marker id="ARROW_EQUILATERAL" viewBox="0 0 10 10" refX="6.5" refY="5" markerWidth="6" markerHeight="6" orient="auto-start-reverse" markerUnits="strokeWidth"><path d="M8 5L0.5 9.33013L0.5 0.669873L8 5Z"></path></marker><marker id="TRIANGLE_FILLED" viewBox="0 0 10 10" refX="5" refY="5" markerWidth="6" markerHeight="6" orient="auto-start-reverse" markerUnits="strokeWidth"><path d="M-5.96244e-08 5L7.5 9.33013L7.5 0.669873L-5.96244e-08 5Z"></path></marker><marker id="CIRCLE_FILLED" viewBox="0 0 10 10" refX="5" refY="5" markerWidth="6" markerHeight="6" orient="auto-start-reverse" markerUnits="strokeWidth"><circle r="3.5" cx="5" cy="5"></circle></marker><marker id="DIAMOND_FILLED" viewBox="0 0 10 10" refX="5" refY="5" markerWidth="6" markerHeight="6" orient="auto-start-reverse" markerUnits="strokeWidth"><rect x="-0.000488281" y="5" width="7.07138" height="7.07138" transform="rotate(-45 -0.000488281 5)"></rect></marker></defs><g transform="matrix(1,0,0,1,0,0)"><g id="886" opacity="1" style="mix-blend-mode:normal"><g><defs><clipPath id="886_clipPath" x="-50%" y="-50%" width="200%" height="200%"><path d="M0,0h100v0v100v0h-100v0v-100z" fill="white" clip-rule="nonzero"></path></clipPath></defs><g clip-path="url(#886_clipPath)"><path id="886_fill_path" d="M0,0h100v0v100v0h-100v0v-100z" fill-rule="nonzero" fill="rgb(255, 255, 255)" fill-opacity="1" style="mix-blend-mode:NORMAL"></path><g transform="matrix(1,0,0,1,1,0.9999)"><g id="887" opacity="1" style="mix-blend-mode:normal"><g><g><g transform="matrix(6.123233995736766e-17,1,-1,6.123233995736766e-17,97.2956,0.9747)"><g id="888" opacity="1" style="mix-blend-mode:normal"><g><g><g transform="matrix(1,0,0,-1,0,96.0408)"><g id="889" opacity="1" style="mix-blend-mode:normal"><g><g><g style="mix-blend-mode:NORMAL"><g><path id="889_stroke_path" d="M96.0408,48.0204c0,5.0373 -0.7923,10.0459 -2.3482,14.8383c-1.5559,4.7924 -3.8608,9.3112 -6.8237,13.3881c-2.9629,4.0769 -6.5452,7.6592 -10.6221,10.6221c-4.0769,2.9629 -8.5957,5.2678 -13.3881,6.8237c-4.7924,1.5559 -9.801,2.3482 -14.8383,2.3482c-5.0373,0 -10.0459,-0.7923 -14.8383,-2.3482c-4.7924,-1.5559 -9.3112,-3.8608 -13.3881,-6.8237c-4.0769,-2.9629 -7.6592,-6.5452 -10.6221,-10.6221c-2.9629,-4.0769 -5.2678,-8.5957 -6.8237,-13.3881c-1.5559,-4.7924 -2.3482,-9.801 -2.3482,-14.8383c0,-5.0373 0.7923,-10.0459 2.3482,-14.8383c1.5559,-4.7924 3.8608,-9.3112 6.8237,-13.3881c2.9629,-4.0769 6.5452,-7.6592 10.6221,-10.6221c4.0769,-2.9629 8.5957,-5.2678 13.3881,-6.8237c4.7924,-1.5559 9.801,-2.3482 14.8383,-2.3482c5.0373,0 10.0459,0.7923 14.8383,2.3482c4.7924,1.5559 9.3112,3.8608 13.3881,6.8237c4.0769,2.9629 7.6592,6.5452 10.6221,10.6221c2.9629,4.0769 5.2678,8.5957 6.8237,13.3881c1.5559,4.7924 2.3482,9.801 2.3482,14.8383z" fill="none" stroke="rgb(232, 232, 232)" stroke-width="2" stroke-linecap="none" stroke-linejoin="round" stroke-dasharray="0 0" stroke-opacity="1"></path></g></g></g></g></g></g><g transform="matrix(-1,1.2246467991473532e-16,-1.2246467991473532e-16,-1,92.1207,92.1207)"><g id="893" opacity="1" style="mix-blend-mode:normal"><g><g><path id="893_fill_path" d="M88.2008,44.1004c0,4.6261 -0.7277,9.2258 -2.1566,13.627c-1.4289,4.4012 -3.5457,8.5511 -6.2667,12.2952c-2.721,3.7441 -6.0108,7.0339 -9.7549,9.7549c-3.7441,2.721 -7.894,4.8378 -12.2952,6.2667c-4.4012,1.4289 -9.0009,2.1566 -13.627,2.1566c-4.6261,0 -9.2259,-0.7277 -13.6271,-2.1566c-4.4012,-1.4289 -8.551,-3.5457 -12.2951,-6.2667c-3.7441,-2.721 -7.034,-6.0108 -9.755,-9.7549c-2.721,-3.7441 -4.8378,-7.894 -6.2667,-12.2952c-1.4289,-4.4012 -2.1564,-9.0009 -2.1564,-13.627c0,-4.6261 0.7275,-9.2259 2.1564,-13.6271c1.4289,-4.4012 3.5457,-8.551 6.2667,-12.2951c2.721,-3.7441 6.0109,-7.034 9.755,-9.755c3.7441,-2.721 7.8939,-4.8378 12.2951,-6.2667c4.4012,-1.4289 9.001,-2.1564 13.6271,-2.1564c4.6261,0 9.2258,0.7275 13.627,2.1564c4.4012,1.4289 8.5511,3.5457 12.2952,6.2667c3.7441,2.721 7.0339,6.0109 9.7549,9.755c2.721,3.7441 4.8378,7.8939 6.2667,12.2951c1.4289,4.4012 2.1566,9.001 2.1566,13.6271z" fill-rule="nonzero" fill="rgb(255, 255, 255)" fill-opacity="1" style="mix-blend-mode:NORMAL"></path></g></g></g></g></g></g></g></g><g transform="matrix(1,0,0,1,25.474,38.9258)"><g id="894" opacity="1" style="mix-blend-mode:normal"><g><g><g transform="matrix(1,0,0,1,0,0.7617)"><g id="895" opacity="1" style="mix-blend-mode:normal"><g><g><defs><mask id="896_mask" style="mask-type:alpha" x="-50%" y="-50%" width="200%" height="200%"><g transform="matrix(1,0,0,1,0,0)"><g id="896" opacity="1" style="mix-blend-mode:normal"><g><g><path id="896_fill_path" d="M0,0h8.19484v8.19467h-8.19484z" fill-rule="evenodd" fill="rgb(0, 0, 0)" fill-opacity="1" style="mix-blend-mode:NORMAL"></path></g></g></g></g></mask></defs><g mask="url(#896_mask)"><g transform="matrix(1,0,0,1,-0.00019999999999953388,0)"><g id="897" opacity="1" style="mix-blend-mode:normal"><g><g><path id="897_fill_path" d="M4.09746,3.48114c-0.3401,0 -0.61649,0.27639 -0.61649,0.61648c0,0.33975 0.27639,0.61615 0.61649,0.61615c0.3401,0 0.61649,-0.2764 0.61649,-0.61615c0,-0.34009 -0.27639,-0.61648 -0.61649,-0.61648M4.09751,8.19467c-2.25918,0 -4.09751,-1.83798 -4.09751,-4.09716c0,-2.25953 1.83833,-4.09751 4.09751,-4.09751c2.25953,0 4.0975,1.83798 4.0975,4.09751c0,2.25918 -1.83797,4.09716 -4.0975,4.09716" fill-rule="evenodd" fill="rgb(5, 5, 5)" fill-opacity="1" style="mix-blend-mode:NORMAL"></path></g></g></g></g></g></g></g></g></g><g transform="matrix(1,0,0,1,38.8455,0.7617)"><g id="8100" opacity="1" style="mix-blend-mode:normal"><g><g><defs><mask id="8101_mask" style="mask-type:alpha" x="-50%" y="-50%" width="200%" height="200%"><g transform="matrix(1,0,0,1,0,0)"><g id="8101" opacity="1" style="mix-blend-mode:normal"><g><g><path id="8101_fill_path" d="M0,0h8.19491v8.19467h-8.19491z" fill-rule="evenodd" fill="rgb(0, 0, 0)" fill-opacity="1" style="mix-blend-mode:NORMAL"></path></g></g></g></g></mask></defs><g mask="url(#8101_mask)"><g transform="matrix(1,0,0,1,0,0)"><g id="8102" opacity="1" style="mix-blend-mode:normal"><g><g><path id="8102_fill_path" d="M4.09744,3.48114c-0.3401,0 -0.61649,0.27639 -0.61649,0.61648c0,0.33975 0.27639,0.61615 0.61649,0.61615c0.34009,0 0.61649,-0.2764 0.61649,-0.61615c0,-0.34009 -0.2764,-0.61648 -0.61649,-0.61648M4.09751,8.19467c-2.25953,0 -4.09751,-1.83798 -4.09751,-4.09716c0,-2.25953 1.83798,-4.09751 4.09751,-4.09751c2.25918,0 4.0975,1.83798 4.0975,4.09751c0,2.25918 -1.83832,4.09716 -4.0975,4.09716" fill-rule="evenodd" fill="rgb(5, 5, 5)" fill-opacity="1" style="mix-blend-mode:NORMAL"></path></g></g></g></g></g></g></g></g></g><g transform="matrix(1,0,0,1,21.7798,0.0001)"><g id="8105" opacity="1" style="mix-blend-mode:normal"><g><g><defs><mask id="8106_mask" style="mask-type:alpha" x="-50%" y="-50%" width="200%" height="200%"><g transform="matrix(1,0,0,1,0,0)"><g id="8106" opacity="1" style="mix-blend-mode:normal"><g><g><path id="8106_fill_path" d="M0,0h3.48102v13.02343h-3.48102z" fill-rule="evenodd" fill="rgb(0, 0, 0)" fill-opacity="1" style="mix-blend-mode:NORMAL"></path></g></g></g></g></mask></defs><g mask="url(#8106_mask)"><g transform="matrix(1,0,0,1,0,-0.0001)"><g id="8107" opacity="1" style="mix-blend-mode:normal"><g><g><path id="8107_fill_path" d="M1.74051,13.02354c-0.96146,0 -1.74051,-0.77905 -1.74051,-1.74051v-9.54252c0,-0.96146 0.77905,-1.74051 1.74051,-1.74051c0.96146,0 1.74051,0.77905 1.74051,1.74051v9.54252c0,0.96146 -0.77905,1.74051 -1.74051,1.74051z" fill-rule="evenodd" fill="rgb(5, 5, 5)" fill-opacity="1" style="mix-blend-mode:NORMAL"></path></g></g></g></g></g></g></g></g></g><g transform="matrix(1,0,0,1,9.4201,18.1646)"><g id="8108" opacity="1" style="mix-blend-mode:normal"><g><g><path id="8108_fill_path" d="M14.25243,6.51627c-7.60254,0 -13.04442,-3.07269 -13.38312,-3.26868c-0.83196,-0.48108 -1.11636,-1.54592 -0.63529,-2.37823c0.48108,-0.83127 1.54418,-1.11636 2.37649,-0.63598c0.46959,0.26804 11.11211,6.19517 23.04295,-0.03516c0.85146,-0.44487 1.90342,-0.11522 2.34864,0.73728c0.44453,0.85215 0.11453,1.90377 -0.73728,2.34864c-4.6402,2.42244 -9.11122,3.23213 -13.0124,3.23213z" fill-rule="evenodd" fill="rgb(5, 5, 5)" fill-opacity="1" style="mix-blend-mode:NORMAL"></path></g></g></g></g></g></g></g></g><g transform="matrix(1,0,0,1,0,0)"><g id="890" opacity="1" style="mix-blend-mode:normal"><g><g><g transform="matrix(1,0,0,-1,50.1143,23.0247)"><g id="891" opacity="1" style="mix-blend-mode:normal"><g><g><g style="mix-blend-mode:NORMAL"><g><path id="891_stroke_path" d="M0,22.05305c9.77262,0 28.10262,-4.46603 39.34113,-22.05305" fill="none" stroke="rgb(39, 178, 165)" stroke-width="2" stroke-linecap="round" stroke-linejoin="round" stroke-dasharray="0 0" stroke-opacity="1"></path></g></g></g></g></g></g><g transform="matrix(0.9999960813797018,0.002799504463461501,-0.002799504463461501,0.9999960813797018,0.2712,0)"><g id="892" opacity="0.3" style="mix-blend-mode:normal"><g><g></g></g></g></g></g></g></g></g></g></g></g></g></g></g></g></g><animateTransform href="#890" attributeName="transform" type="rotate" values="0 49 49.0008;50 49 49.0008;90 49 49.0008;150 49 49.0008;210 49 49.0008;270 49 49.0008;360 49 49.0008;360 49 49.0008" dur="1.12s" repeatCount="indefinite" calcMode="spline" keyTimes="0;0.1;0.28;0.46;0.63;0.81;0.99;1" keySplines="0.5 0.35 1 1;0.5 0.35 1 1;0.5 0.35 1 1;0.5 0.35 1 1;0.5 0.35 1 1;0.5 0.35 1 1;0.5 0.35 1 1" additive="sum" fill="freeze"></animateTransform></svg>