<svg width="129.938" height="153" viewBox="0 0 129.938 153" xmlns="http://www.w3.org/2000/svg">
    <path d="M19.565 127.44c.59.275 1.2.355 2.243.355.623 0 4.561-.122 4.756-.127 3.054-.081 6.365-.126 10.518-.126 1.868 0 2.045.118 2.459 1.04a13.26 13.26 0 0 0 .305.648l.068.126.046.171c.797 3.154.574 7.272-.712 12.342l-.129.496-.128.336c-1.304 3.322-3.337 5.68-6.127 7.14l-.338.171a1.573 1.573 0 1 0 1.378 2.83c3.834-1.868 6.577-5.049 8.194-9.46l.044-.138c1.599-6.02 1.867-10.99.753-14.921a1.573 1.573 0 0 0-.17-.388 3.132 3.132 0 0 1-.138-.26l-.018-.035a14.383 14.383 0 0 1-.157-.346c-.916-2.04-2.207-2.9-5.33-2.9-4.181 0-7.52.046-10.601.128-3.223.086-4.545.125-5.109.127h-.106c-.208-.001-.28-.01-.318-.025l-.022-.012-.013-.009-.021-.015-.019-.011c.033.018-.467-.241-.604-.317a4.819 4.819 0 0 1-.552-.349c-.842-.625-1.302-1.528-1.302-3.19 0-.475-.683-6.173-.852-7.787-.505-4.837-.804-12.287-.833-16.491a90.926 90.926 0 0 1 0-1.231 1.573 1.573 0 0 0-.096-.554c-.74-2.008-1.615-3.005-3.522-3.51-.91-.24-1.85-.47-3.329-.821-2.727-.646-3.655-.87-4.498-1.102l-.21-.058c-.14-.04-.282-.08-.433-.125-.705-.205-1.239-.389-1.594-.548l.145.047c.064-.248.16-.554.288-.913.387-1.086 1.047-2.593 1.977-4.506 1.887-3.885 4.861-9.402 8.919-16.541.136-.24.207-.512.205-.788-.042-6.192-.065-9.992-.07-11.346v-.333C15.72 20.598 38.174 3.147 71.23 3.147c28.379 0 53.202 21.902 55.176 48.556 1.777 23.996-2.339 41.078-16.607 59.174-6.991 8.867-6.27 17.566-.859 25.656.861 1.287 1.723 2.39 2.783 3.63.042.05.737.856.864 1.01.042.05.077.093.103.127l.008.008.031.072c.238.47.704.803 1.253.856l.151.007c.87 0 1.574-.704 1.574-1.573 0-.465-.124-.72-.36-1.067a5.909 5.909 0 0 0-.335-.436c-.152-.183-.875-1.023-.896-1.047-.987-1.155-1.778-2.168-2.56-3.336-4.72-7.059-5.322-14.303.714-21.958 14.727-18.68 19.113-36.517 17.274-61.355C127.445 23.137 101.222 0 71.229 0c-34.62 0-58.587 18.626-59.863 54.057v.074l.001.386c.005 1.486.028 5.25.069 11.297l-.003-.423-.087.155C2.842 80.53-.616 87.662.089 89.829l.026.073c.416 1.067 1.397 1.507 3.648 2.162l.337.097.215.061c.927.26 1.821.475 4.743 1.167 1.453.344 2.372.57 3.25.802.674.178.902.369 1.233 1.19l.042.103-.001.34.002.64c.029 4.32.334 11.867.85 16.797.028.27.065.609.108.993l.054.482c.264 2.335.672 5.78.672 5.984 0 2.666.937 4.502 2.572 5.717.286.212.58.396.906.577.183.101.726.382.658.346l.16.08z" fill="#009591" fill-rule="nonzero"/>
</svg>
