<svg width="121.622" height="150" viewBox="0 0 121.622 150" xmlns="http://www.w3.org/2000/svg">
    <path d="M121.61 81.467c-.076-2.973-.582-6.943-2.549-9.02a7.93 7.93 0 0 0-2.385-1.817c.478-3.205.72-6.476.72-9.743 0-8.205-1.488-16.166-4.426-23.663-2.84-7.247-6.905-13.757-12.086-19.35-5.187-5.6-11.232-9.998-17.964-13.072A52.702 52.702 0 0 0 60.884 0a52.702 52.702 0 0 0-22.037 4.802c-6.732 3.074-12.776 7.472-17.964 13.073-5.18 5.592-9.247 12.102-12.086 19.349C5.86 44.72 4.37 52.682 4.37 60.887c0 3.411.264 6.813.78 10.131-.232-.026-.473 0-.706.09-1.836.709-2.303 1.426-2.972 2.633l-.067.12C-1.01 78.211.285 87.37.93 90.234c.24 1.065 1.054 3.802 3.437 6.201 2.418 2.434 5.727 3.711 9.597 3.711.115 0 .232-.003.348-.005.307 6.106 2.476 12.54 6.322 18.704 3.831 6.142 9.054 11.622 15.14 15.899a1.485 1.485 0 0 0-.16.762c.07 1.193.033 4.93.007 7.403l-.012 1.21-5.36 3.092a1.494 1.494 0 1 0 1.494 2.589l6.85-3.953v-.863c0-.395.008-1.159.017-2.044.027-2.665.065-6.314-.012-7.61a1.491 1.491 0 0 0-.075-.381c.023-.03.048-.057.069-.089a1.494 1.494 0 0 0-.397-2.075c-6.062-4.115-11.257-9.482-15.025-15.521-3.865-6.196-5.909-12.635-5.909-18.62A1.494 1.494 0 0 0 15.12 97.3a1.491 1.491 0 0 0-.693-.148c-3.305.102-5.977-.847-7.938-2.822-1.887-1.9-2.5-4.117-2.642-4.751-.937-4.164-1.399-11.438.172-14.265l.068-.124c.492-.887.522-.94 1.434-1.293.358-.138.631-.4.792-.716a1.481 1.481 0 0 0 .723.055 1.494 1.494 0 0 0 1.22-1.726 62.965 62.965 0 0 1-.896-10.622c0-7.83 1.42-15.425 4.22-22.573 2.703-6.898 6.571-13.092 11.497-18.409 4.918-5.308 10.642-9.475 17.013-12.384a49.733 49.733 0 0 1 20.795-4.533 49.732 49.732 0 0 1 20.795 4.533c6.37 2.909 12.095 7.076 17.012 12.384 4.926 5.317 8.794 11.511 11.496 18.409 2.801 7.148 4.221 14.743 4.221 22.573a63.07 63.07 0 0 1-.874 10.475v.009a1.533 1.533 0 0 0-.017.136v.014c-.003.046-.004.09-.003.136v.014c.003.045.006.088.012.132l.002.016a1.466 1.466 0 0 0 .114.398l.01.021c.017.036.035.072.054.106l.013.022a1.453 1.453 0 0 0 .27.338c.026.024.054.048.081.07l.031.025c.027.02.055.04.083.058l.04.026a1.468 1.468 0 0 0 .42.176l.036.01c1.196.268 2.123 1.336 2.126 1.34l.071.079c2.185 2.263 2.242 11.233.635 15.839-.36 1.032-1.637 3.173-3.681 4.842-2.413 1.97-5.069 2.683-7.894 2.118h-.002c-.027-.006-.055-.009-.083-.013-.024-.003-.048-.008-.072-.01h-.003l-.032-.001a1.484 1.484 0 0 0-.12-.005h-.009c-.047.001-.094.004-.14.01h-.01a1.518 1.518 0 0 0-.136.023l-.019.005c-.04.01-.08.02-.12.033l-.03.01a1.514 1.514 0 0 0-.105.04l-.035.017c-.032.014-.064.029-.094.046l-.038.022a1.395 1.395 0 0 0-.084.052l-.037.028c-.026.019-.053.038-.078.058l-.035.033c-.024.02-.048.042-.07.064l-.035.038c-.021.022-.042.044-.061.068-.013.015-.024.032-.036.048l-.05.067-.038.062c-.012.02-.025.04-.036.061l-.04.081-.023.05a1.51 1.51 0 0 0-.037.102c-.004.013-.01.025-.013.038-.011.036-.02.072-.028.108l-.01.037v.003l-.01.074c-.004.027-.01.054-.012.08v.003c-.629 7.043-2.95 14.043-6.716 20.244-3.723 6.132-8.769 11.348-14.59 15.083a1.493 1.493 0 0 0-.55 1.88c0 1.942.009 3.055.017 4.134.008 1.152.017 2.343.017 4.553v.885l8.06 4.418a1.494 1.494 0 1 0 1.437-2.62l-6.508-3.568c-.002-1.674-.01-2.697-.017-3.69a522.406 522.406 0 0 1-.018-4.02c5.854-3.935 10.926-9.276 14.707-15.504 3.726-6.137 6.121-13.014 6.974-19.984.27.019.538.031.806.031 2.825 0 5.535-1.008 7.946-2.977 2.376-1.94 4.03-4.498 4.614-6.173.879-2.52 1.368-6.292 1.276-9.844" fill="#ffffff" fill-rule="evenodd"/>
</svg>
