<svg width="129.938" height="153" viewBox="0 0 129.938 153" xmlns="http://www.w3.org/2000/svg">
    <path d="M110.373 127.44c-.59.275-1.2.355-2.242.355-.624 0-4.562-.122-4.757-.127-3.054-.081-6.365-.126-10.517-.126-1.869 0-2.046.118-2.46 1.04a13.26 13.26 0 0 1-.305.648l-.068.126-.046.171c-.797 3.154-.574 7.272.712 12.342l.129.496.128.336c1.305 3.322 3.338 5.68 6.127 7.14l.339.171a1.573 1.573 0 1 1-1.378 2.83c-3.834-1.868-6.578-5.049-8.195-9.46l-.044-.138c-1.598-6.02-1.866-10.99-.753-14.921.04-.136.096-.267.17-.388.044-.073.089-.157.138-.26l.018-.035c.033-.068.055-.117.157-.346.916-2.04 2.208-2.9 5.33-2.9 4.181 0 7.52.046 10.602.128 3.223.086 4.544.125 5.108.127h.106c.208-.001.28-.01.318-.025l.022-.012.013-.009.021-.015.02-.011c-.034.018.466-.241.603-.317.213-.117.39-.229.552-.349.842-.625 1.302-1.528 1.302-3.19 0-.475.683-6.173.852-7.787.505-4.837.804-12.287.833-16.491.003-.415.003-.825 0-1.231-.001-.19.031-.377.097-.554.738-2.008 1.615-3.005 3.521-3.51.91-.24 1.85-.47 3.329-.821 2.727-.646 3.655-.87 4.498-1.102l.21-.058c.14-.04.282-.08.433-.125.705-.205 1.24-.389 1.594-.548l-.145.047a10.646 10.646 0 0 0-.287-.913c-.388-1.086-1.048-2.593-1.978-4.506-1.887-3.885-4.861-9.402-8.919-16.541a1.573 1.573 0 0 1-.205-.788c.042-6.192.065-9.992.07-11.346v-.333C114.218 20.598 91.764 3.147 58.71 3.147c-28.379 0-53.202 21.902-55.176 48.556C1.757 75.7 5.872 92.781 20.141 110.877c6.99 8.867 6.268 17.566.858 25.656-.86 1.287-1.723 2.39-2.783 3.63-.042.05-.737.856-.864 1.01-.042.05-.076.093-.103.127l-.007.008-.032.072c-.238.47-.704.803-1.253.856l-.151.007a1.573 1.573 0 0 1-1.574-1.573c0-.465.125-.72.36-1.067.088-.13.194-.265.335-.436.152-.183.876-1.023.897-1.047.986-1.155 1.777-2.168 2.56-3.336 4.72-7.059 5.321-14.303-.715-21.958C2.942 94.146-1.444 76.309.395 51.47 2.493 23.137 28.717 0 58.71 0c34.62 0 58.587 18.626 59.863 54.057v.46c-.006 1.486-.028 5.25-.07 11.297l.003-.423.087.155c8.504 14.985 11.962 22.116 11.257 24.283l-.026.073c-.415 1.067-1.397 1.507-3.647 2.162a64.62 64.62 0 0 1-.338.097l-.215.061c-.927.26-1.821.475-4.742 1.167-1.454.344-2.373.57-3.25.802-.674.178-.903.369-1.234 1.19l-.041.103v.34l-.001.64c-.03 4.32-.335 11.867-.85 16.797-.028.27-.065.609-.108.993l-.055.482c-.264 2.335-.672 5.78-.672 5.984 0 2.666-.937 4.502-2.572 5.717a7.89 7.89 0 0 1-.906.577c-.183.101-.726.382-.658.346l-.16.08z" fill="#ffffff" fill-rule="nonzero"/>
</svg>
